<svg id="bank" xmlns="http://www.w3.org/2000/svg" width="36.41" height="36.41" viewBox="0 0 36.41 36.41">
  <circle id="Ellipse_76" data-name="Ellipse 76" cx="18.205" cy="18.205" r="18.205" fill="#c8e8f7"/>
  <g id="Group_1028" data-name="Group 1028" transform="translate(10.114 10.114)">
    <path id="Path_1492" data-name="Path 1492" d="M-11523.894-4231.214c.372-.178,6.824-4.444,6.824-4.444l7.419,4.7v1.523h-1.263v7.527s1.064.13,1.263.653a6.56,6.56,0,0,1,.157,1.74h-14.876s-.244-1.752.476-1.9a5.5,5.5,0,0,0,1.063-.3v-7.724h-1.263S-11524.266-4231.036-11523.894-4231.214Z" transform="translate(11525.74 4235.658)" fill="#76cdf6"/>
    <g id="bank-2" data-name="bank" transform="translate(0 0)">
      <g id="Group_1027" data-name="Group 1027" transform="translate(0 0)">
        <g id="Group_1026" data-name="Group 1026" transform="translate(0 0)">
          <path id="Path_1490" data-name="Path 1490" d="M193.465,63.979a1.507,1.507,0,1,0,1.507,1.507A1.509,1.509,0,0,0,193.465,63.979Zm0,2.261a.754.754,0,1,1,.754-.754A.755.755,0,0,1,193.465,66.24Z" transform="translate(-185.181 -61.72)" fill="#009fe4"/>
          <path id="Path_1491" data-name="Path 1491" d="M16.193,6.779a.375.375,0,0,0,.377-.376V4.9a.376.376,0,0,0-.184-.324L9.019.2,9.009.193A1.46,1.46,0,0,0,7.55.2L.184,4.573A.376.376,0,0,0,0,4.9V6.4a.375.375,0,0,0,.377.376h1.13v6.779A1.508,1.508,0,0,0,0,15.063v1.13a.376.376,0,0,0,.377.377H16.193a.376.376,0,0,0,.377-.377v-1.13a1.508,1.508,0,0,0-1.506-1.506V6.779Zm-.377,8.285v.753H.753v-.753a.754.754,0,0,1,.753-.753H15.063A.754.754,0,0,1,15.816,15.063ZM2.259,13.557V6.779H3.766v6.778Zm2.259,0V6.779H6.778v6.778Zm3.013,0V6.779H9.038v6.778Zm2.259,0V6.779H12.05v6.778Zm3.013,0V6.779H14.31v6.778ZM.753,6.025V5.11L7.924.85a.717.717,0,0,1,.716,0L15.816,5.11v.915Z" transform="translate(0 0)" fill="#1aa7e8"/>
        </g>
      </g>
    </g>
  </g>
</svg>
