<svg id="group_error" data-name="group error" xmlns="http://www.w3.org/2000/svg" width="68" height="68" viewBox="0 0 68 68">
  <circle id="Ellipse_3" data-name="Ellipse 3" cx="34" cy="34" r="34" fill="#e55f5f" opacity="0.1"/>
  <path id="Path_318" data-name="Path 318" d="M37.733,50.467A12.733,12.733,0,1,1,50.467,37.733,12.7,12.7,0,0,1,37.733,50.467Zm0-23.152a10.375,10.375,0,1,0,7.38,3.039A10.375,10.375,0,0,0,37.733,27.315Zm1.158,10.418V33.1a1.158,1.158,0,0,0-2.316,0v4.631a1.158,1.158,0,1,0,2.316,0Zm-.348,5.441c.116-.116.232-.233.232-.348s.116-.348.116-.463a.694.694,0,0,0-.116-.463c-.115-.115-.115-.232-.231-.347a.407.407,0,0,0-.232-.115c-.116,0-.116-.116-.232-.116a1.058,1.058,0,0,0-1.273.232c-.115.115-.232.232-.232.348s-.115.231-.115.463a1.19,1.19,0,0,0,1.158,1.158,1.137,1.137,0,0,0,.925-.348Z" transform="translate(-3.733 -3.733)" fill="#e55f5f"/>
</svg>
