<svg id="loan_pay" xmlns="http://www.w3.org/2000/svg" width="36.119" height="36.834" viewBox="0 0 36.119 36.834">
  <path id="Path_1533" data-name="Path 1533" d="M18.059,0A18.241,18.241,0,0,1,36.119,18.417,18.241,18.241,0,0,1,18.059,36.834,18.241,18.241,0,0,1,0,18.417,18.241,18.241,0,0,1,18.059,0Z" fill="#c8e8f7"/>
  <g id="loan" transform="translate(7 10.341) rotate(-7)">
    <g id="Group_1537" data-name="Group 1537" transform="translate(13.047 5.959)">
      <path id="Path_1536" data-name="Path 1536" d="M2.264,0A2.264,2.264,0,1,1,0,2.264,2.264,2.264,0,0,1,2.264,0Z" transform="translate(0 0)" fill="#76cdf6"/>
      <g id="Group_1536" data-name="Group 1536" transform="translate(0)">
        <path id="Path_1499" data-name="Path 1499" d="M2.265,0A2.265,2.265,0,1,0,4.531,2.265,2.268,2.268,0,0,0,2.265,0Zm0,3.776a1.51,1.51,0,1,1,1.51-1.51A1.512,1.512,0,0,1,2.265,3.776Z" fill="#009fe4"/>
      </g>
    </g>
    <g id="Group_1563" data-name="Group 1563" transform="translate(0 10.281)">
      <path id="Path_1533-2" data-name="Path 1533" d="M0,0H2.795s0,.919.15,1.007A21.814,21.814,0,0,1,5.74.783C6.195.874,8.407,2.09,8.909,2.2s3.089-.057,3.318,0a1.218,1.218,0,0,1,.6.969,1.377,1.377,0,0,1-.374.933S16.3,2.669,16.886,2.572a1.381,1.381,0,0,1,1.193.6.876.876,0,0,1-.187.933c-.277.19-6.27,3.2-6.748,3.391a7.6,7.6,0,0,1-2.423.3c-.387-.082-4.429-1.727-4.733-1.826a1.587,1.587,0,0,0-.858,0c-.1.055-.186.6-.186.6H0Z" transform="translate(0.558 0.501)" fill="#76cdf6"/>
      <g id="Group_1533" data-name="Group 1533" transform="translate(0 0)">
        <g id="Group_1532" data-name="Group 1532" transform="translate(0)">
          <path id="Path_1497" data-name="Path 1497" d="M18.591,2.743a1.448,1.448,0,0,0-1.322-.177l-.01,0L13.714,3.961a1.5,1.5,0,0,0-1.485-1.71H9.8A.376.376,0,0,1,9.615,2.2L7.633,1.088A2.628,2.628,0,0,0,6.346.75H3.864V.375A.375.375,0,0,0,3.489,0H.375A.375.375,0,0,0,0,.375V7.127A.375.375,0,0,0,.375,7.5H3.489a.375.375,0,0,0,.375-.375V6.752h.282L7.725,8.2a5.845,5.845,0,0,0,4.613-.1l.006,0,5.965-2.836a1.446,1.446,0,0,0,.282-2.521ZM3.113,6.752H.75v-6H3.113Zm14.9-2.18L18,4.582,12.024,7.421a5.094,5.094,0,0,1-4.018.084L4.36,6.029A.375.375,0,0,0,4.219,6H3.864V1.5H6.346a1.878,1.878,0,0,1,.92.241L9.247,2.856A1.126,1.126,0,0,0,9.8,3h2.429a.75.75,0,0,1,.393,1.388h0a.374.374,0,0,0-.078.043.747.747,0,0,1-.312.068H8.415A1.127,1.127,0,0,0,7.29,5.627a.375.375,0,1,0,.75,0,.376.376,0,0,1,.375-.375h3.813a1.494,1.494,0,0,0,.717-.183l4.582-1.8a.7.7,0,0,1,.49,1.3Z" fill="#009fe4"/>
        </g>
      </g>
    </g>
    <g id="Group_1531" data-name="Group 1531" transform="translate(1.561 10.571)">
      <g id="Group_1530" data-name="Group 1530">
        <path id="Path_1496" data-name="Path 1496" d="M.378,0A.378.378,0,1,0,.755.378.378.378,0,0,0,.378,0Z" fill="#009fe4"/>
      </g>
    </g>
    <g id="Group_1541" data-name="Group 1541" transform="translate(5.896 4.767)">
      <path id="Path_1537" data-name="Path 1537" d="M2.264,0A2.264,2.264,0,1,1,0,2.264,2.264,2.264,0,0,1,2.264,0Z" transform="translate(0 0)" fill="#76cdf6"/>
      <g id="Group_1540" data-name="Group 1540" transform="translate(0)">
        <path id="Path_1501" data-name="Path 1501" d="M2.265,0A2.265,2.265,0,1,0,4.531,2.265,2.268,2.268,0,0,0,2.265,0Zm0,3.776a1.51,1.51,0,1,1,1.51-1.51A1.512,1.512,0,0,1,2.265,3.776Z" fill="#009fe4"/>
      </g>
    </g>
    <g id="Group_1539" data-name="Group 1539" transform="translate(10.663 0)">
      <path id="Path_1538" data-name="Path 1538" d="M2.264,0A2.264,2.264,0,1,1,0,2.264,2.264,2.264,0,0,1,2.264,0Z" transform="translate(0 0)" fill="#76cdf6"/>
      <g id="Group_1538" data-name="Group 1538" transform="translate(0 0)">
        <path id="Path_1500" data-name="Path 1500" d="M2.265,0A2.265,2.265,0,1,0,4.531,2.265,2.268,2.268,0,0,0,2.265,0Zm0,3.776a1.51,1.51,0,1,1,1.51-1.51A1.512,1.512,0,0,1,2.265,3.776Z" fill="#009fe4"/>
      </g>
    </g>
    <g id="Group_1535" data-name="Group 1535" transform="translate(1.561 12.082)">
      <g id="Group_1534" data-name="Group 1534">
        <path id="Path_1498" data-name="Path 1498" d="M.378,0A.378.378,0,0,0,0,.378V2.643a.378.378,0,1,0,.755,0V.378A.378.378,0,0,0,.378,0Z" fill="#fff"/>
      </g>
    </g>
  </g>
</svg>
