<svg id="mobile_money" xmlns="http://www.w3.org/2000/svg" width="36.403" height="36.403" viewBox="0 0 36.403 36.403">
  <circle id="Ellipse_73" data-name="Ellipse 73" cx="18.201" cy="18.201" r="18.201" fill="#c8e8f7"/>
  <g id="Group_1017" data-name="Group 1017" transform="translate(9 9)">
    <rect id="Rectangle_1868" data-name="Rectangle 1868" width="11.773" height="18.425" rx="3.144" transform="translate(0)" fill="#76cdf6"/>
    <path id="Path_1481" data-name="Path 1481" d="M2.069,0A2.069,2.069,0,0,0,0,2.069V16.356a2.061,2.061,0,0,0,1.4,1.95,2.1,2.1,0,0,1-.118-.649v-7.8a.768.768,0,0,0-.769-.768V8.668A.768.768,0,0,0,1.286,7.9V2.3A1.021,1.021,0,0,1,2.3,1.286H7.051L7.677,0H2.07Z" transform="translate(0)" fill="#dfe8f4"/>
    <path id="Path_1482" data-name="Path 1482" d="M9.7,0H2.069A2.069,2.069,0,0,0,0,2.069V16.356a2.069,2.069,0,0,0,2.069,2.069H9.7a2.069,2.069,0,0,0,2.069-2.069V2.069A2.069,2.069,0,0,0,9.7,0ZM11,16.356a1.3,1.3,0,0,1-1.3,1.3H2.069a1.3,1.3,0,0,1-1.3-1.3V2.069a1.3,1.3,0,0,1,1.3-1.3h.963a.7.7,0,0,1,.546.257.7.7,0,0,0,.545.253H7.65a.7.7,0,0,0,.542-.253A.7.7,0,0,1,8.737.768H9.7a1.3,1.3,0,0,1,1.3,1.3V16.356Z" transform="translate(0)" fill="#1aa7e8"/>
    <rect id="Rectangle_1869" data-name="Rectangle 1869" width="9.212" height="6.621" rx="1.097" transform="translate(9.212 5.278)" fill="#1aa7e8"/>
    <path id="Path_1483" data-name="Path 1483" d="M16.724,16.392v2.4a.077.077,0,0,0,.13.053l2.33-2.449Z" transform="translate(-5.719 -5.606)" fill="#1aa7e8"/>
    <path id="Path_1484" data-name="Path 1484" d="M18.236,12.909a.264.264,0,1,1-.281-.28.28.28,0,0,1,.281.28Zm1.915,0a.276.276,0,1,1-.272-.28A.276.276,0,0,1,20.15,12.909Z" transform="translate(-6.055 -4.319)" fill="#fff"/>
    <circle id="Ellipse_74" data-name="Ellipse 74" cx="0.658" cy="0.658" r="0.658" transform="translate(15.08 7.933)" fill="#fff"/>
  </g>
</svg>
