<svg xmlns="http://www.w3.org/2000/svg" width="177.768" height="25.426" viewBox="0 0 177.768 25.426">
  <g id="powered-by-isw" transform="translate(0 0)">
    <text id="Powered_by" data-name="Powered by" transform="translate(0 18.168)" fill="#d8d9dc" font-size="13" font-family="CeraPro-Regular, Cera Pro"><tspan x="0" y="0">Powered by</tspan></text>
    <path id="Path_458" data-name="Path 458" d="M96.9,12.3l.318-1.813a5.326,5.326,0,0,0-4.45.681v7.257h2.12v-5.9A2.213,2.213,0,0,1,96.9,12.3M78.62,8.418l2.119-.4v2.361h2.1v1.887h-2.1V15.08a2.323,2.323,0,0,0,.237,1.141.974.974,0,0,0,.942.428,3.745,3.745,0,0,0,1.365-.258l.3,1.769a5.941,5.941,0,0,1-.853.285,4.738,4.738,0,0,1-1.154.122,3.586,3.586,0,0,1-1.437-.251,2.264,2.264,0,0,1-.909-.7,2.672,2.672,0,0,1-.476-1.087,6.764,6.764,0,0,1-.136-1.415ZM100.361,16.8a2,2,0,0,0,.823-.123.475.475,0,0,0,.242-.471.574.574,0,0,0-.313-.48,5.84,5.84,0,0,0-.952-.467q-.462-.183-.9-.41a2.694,2.694,0,0,1-.688-.509,2.1,2.1,0,0,1-.442-.713,2.728,2.728,0,0,1-.157-.986,2.2,2.2,0,0,1,.783-1.782A3.26,3.26,0,0,1,100.9,10.2a6.368,6.368,0,0,1,1.311.131,6.074,6.074,0,0,1,.993.28l-.369,1.768a7.244,7.244,0,0,0-.8-.242,4.056,4.056,0,0,0-.975-.109c-.663,0-1,.2-1,.6a.626.626,0,0,0,.043.242.513.513,0,0,0,.168.206,2.545,2.545,0,0,0,.35.214c.148.079.336.162.562.255a8.1,8.1,0,0,1,1.15.545,2.691,2.691,0,0,1,.719.583,1.768,1.768,0,0,1,.369.688,3.269,3.269,0,0,1,.108.881,2.088,2.088,0,0,1-.831,1.794,3.968,3.968,0,0,1-2.355.6,6.227,6.227,0,0,1-2.573-.487l.355-1.841a6.891,6.891,0,0,0,1.107.359,5.069,5.069,0,0,0,1.126.131m9.7-2.971c-.19.771-.389,1.54-.6,2.3s-.441,1.535-.674,2.3h-1.65q-.3-.753-.556-1.522c-.2-.59-.407-1.231-.624-1.928q-.694-2.267-1.3-4.559h2.234q.257,1.266.534,2.529.151.685.316,1.377c.109.462.223.9.336,1.331q.187-.668.364-1.368c.116-.468.232-.928.341-1.378s.215-.888.312-1.311.187-.814.265-1.18h1.535c.078.364.16.76.257,1.18s.193.86.3,1.311.214.91.326,1.378.232.921.354,1.368q.172-.639.344-1.331c.115-.462.224-.92.323-1.376l.286-1.335.249-1.195h2.2q-.61,2.292-1.306,4.559-.295.97-.625,1.928-.309.882-.564,1.522h-1.65q-.357-1.157-.7-2.3c-.228-.76-.433-1.527-.624-2.3m6.966,4.6h2.116V10.417h-2.116Zm3.8-10,2.117-.4v2.4h2.1V12.3h-2.1v2.819a2.375,2.375,0,0,0,.234,1.141.983.983,0,0,0,.945.426,3.771,3.771,0,0,0,1.367-.258l.3,1.766a5.826,5.826,0,0,1-.853.29,4.711,4.711,0,0,1-1.152.121,3.537,3.537,0,0,1-1.437-.252,2.205,2.205,0,0,1-.91-.7,2.708,2.708,0,0,1-.476-1.087,6.75,6.75,0,0,1-.135-1.418Zm5.71,6a5.042,5.042,0,0,1,.263-1.636,3.972,3.972,0,0,1,.761-1.341,3.62,3.62,0,0,1,1.209-.906,3.785,3.785,0,0,1,1.62-.335,4.968,4.968,0,0,1,1.1.115,5.183,5.183,0,0,1,.967.327l-.439,1.812a5.634,5.634,0,0,0-.657-.214,3.262,3.262,0,0,0-.8-.092,1.624,1.624,0,0,0-1.4.626,2.679,2.679,0,0,0-.462,1.644,2.784,2.784,0,0,0,.435,1.675,1.752,1.752,0,0,0,1.513.594,4.994,4.994,0,0,0,.825-.076,3.372,3.372,0,0,0,.812-.246l.3,1.858a4.835,4.835,0,0,1-.924.289,5.771,5.771,0,0,1-1.223.122,4.342,4.342,0,0,1-1.764-.328,3.319,3.319,0,0,1-1.215-.891,3.533,3.533,0,0,1-.7-1.331,6.01,6.01,0,0,1-.221-1.666m7.412,4V8.416l2.12-.4v2.433a4.128,4.128,0,0,1,1.194-.214,3.762,3.762,0,0,1,1.514.267,2.378,2.378,0,0,1,.967.753,3.04,3.04,0,0,1,.513,1.155,7.009,7.009,0,0,1,.148,1.494v4.517h-2.119V14.179a3.346,3.346,0,0,0-.262-1.554,1.032,1.032,0,0,0-.973-.454,2.617,2.617,0,0,0-.534.052c-.165.036-.316.075-.447.115v6.086h-2.12Zm-63.88,0V11.17a5.432,5.432,0,0,1,3.4-.91c2.119,0,3.283,1.134,3.283,3.629v4.536H74.632V13.889c0-1.589-.742-1.7-1.377-1.7a1.831,1.831,0,0,0-1.06.337v5.9Zm-3.988,0V8.418l2.119-.4V18.427ZM91.112,15H86.344a1.964,1.964,0,0,0,2.224,1.7,8,8,0,0,0,2.12-.338l.211,1.816a7.106,7.106,0,0,1-2.541.45c-2.12,0-4.027-1.133-4.027-4.307,0-2.5,1.482-4.082,3.6-4.082,3.18,0,3.393,3.4,3.18,4.762m-3.283-3.176c-1.378,0-1.485,1.587-1.485,1.587h2.965s-.1-1.587-1.48-1.587" transform="translate(17.936 0.99)" fill="#d8d9dc"/>
    <path id="Path_459" data-name="Path 459" d="M16.415,0c.484,0,1.527,6.094,1.527,10.18,0,1.773-.2,3.169-.719,3.525C14.793,15.546-.452,2.591.01,1.512.242.646,9.946,8.419,13.874,7.123,15.952,6.475,15.721,0,16.415,0Z" transform="translate(161.149 25.426) rotate(-90)" fill="#d8d9dc"/>
    <path id="Path_460" data-name="Path 460" d="M3,0A2.909,2.909,0,0,1,6,2.806,2.908,2.908,0,0,1,3,5.612,2.909,2.909,0,0,1,0,2.806,2.909,2.909,0,0,1,3,0Z" transform="translate(172.156 6.005) rotate(-90)" fill="#d8d9dc"/>
  </g>
</svg>
