<svg id="wallets" xmlns="http://www.w3.org/2000/svg" width="36.119" height="36.834" viewBox="0 0 36.119 36.834">
  <ellipse id="Ellipse_75" data-name="Ellipse 75" cx="18.059" cy="18.417" rx="18.059" ry="18.417" fill="#c8e8f7"/>
  <g id="Group_268" data-name="Group 268" transform="translate(8.54 9.785)">
    <g id="Group_1491" data-name="Group 1491" transform="translate(1.761 0.591)">
      <path id="Path_1509" data-name="Path 1509" d="M13.514,8.615l-1.551,1.472L12.8,11.7l4.86-.063L17.6,8.409Z" transform="translate(-1.761 -0.591)" fill="#c8e8f7"/>
      <path id="Path_1510" data-name="Path 1510" d="M14.308,8.73,6.761,12.973h6.608l6.4.278L16.882,8.591l-1.426,1.635Z" transform="translate(-6.761 -8.591)" fill="#76cdf6"/>
    </g>
    <path id="Path_19" data-name="Path 19" d="M17.706,39.984h-.571V37.128a.571.571,0,0,0-.571-.571h-.571V34.844a.571.571,0,0,0-.571-.571H13.49L12.505,32.3a.571.571,0,0,0-.767-.256l-1.316.659-.2-.4a.571.571,0,0,0-.767-.255L5.006,34.273H1.714A1.716,1.716,0,0,0,0,35.986V46.267a1.716,1.716,0,0,0,1.714,1.714h14.85a.571.571,0,0,0,.571-.571V44.554h.571a.571.571,0,0,0,.571-.571V40.555A.571.571,0,0,0,17.706,39.984ZM14.85,35.415v1.142h-.218l-.571-1.142Zm-3.112-2.089,1.616,3.232H12.348l-1.414-2.83Zm-2.285,0,1.616,3.232H2.991Zm-7.74,2.089H2.721l-1.533.767a.547.547,0,0,1,.525-.767ZM15.993,46.838H1.714a.571.571,0,0,1-.571-.571V37.59a1.694,1.694,0,0,0,.571.11H15.993v2.285H13.708a2.285,2.285,0,1,0,0,4.569h2.285Zm1.142-3.427H13.708a1.142,1.142,0,1,1,0-2.285h3.427Z" transform="translate(0 -31.987)" fill="#1aa7e8"/>
  </g>
</svg>
